<svg
  xmlns="http://www.w3.org/2000/svg"
  stroke-linecap="round"
  stroke-linejoin="round"
  text-anchor="middle"
  dominant-baseline="middle"
  style="font-size: 35px; font-family: Rubik"
  viewBox="-47 -50 220 100"
>
  <style>
    @import url("https://fonts.googleapis.com/css2?family=Rubik");
  </style>
  <g>
    <path
      d="M 20 34.64 L 20 34.64 C 20 34.64 57.06 18.54 40 0 L 40 0 C 40 0 44.59 -40.15 20 -34.64 L 20 -34.64 C 20 -34.64 -12.47 -58.69 -20 -34.64 L -20 -34.64 C -20 -34.64 -57.06 -18.54 -40 0 L -40 0 C -40 0 -44.59 40.15 -20 34.64 L -20 34.64 C -20 34.64 12.47 58.69 20 34.64 z"
      fill="#581c87"
      transform="rotate(0) scale(1)"
    ></path>
    <path
      d="M 17.5 30.31 L 17.5 30.31 C 17.5 30.31 58.69 12.47 35 0 L 35 0 C 35 0 40.15 -44.59 17.5 -30.31 L 17.5 -30.31 C 17.5 -30.31 -18.54 -57.06 -17.5 -30.31 L -17.5 -30.31 C -17.5 -30.31 -58.69 -12.47 -35 0 L -35 0 C -35 0 -40.15 44.59 -17.5 30.31 L -17.5 30.31 C -17.5 30.31 18.54 57.06 17.5 30.31 z"
      fill="#a21caf"
      transform="rotate(10) scale(0.9)"
    ></path>
    <path
      d="M 15 25.98 L 15 25.98 C 15 25.98 59.67 6.27 30 0 L 30 0 C 30 0 35.27 -48.54 15 -25.98 L 15 -25.98 C 15 -25.98 -24.4 -54.81 -15 -25.98 L -15 -25.98 C -15 -25.98 -59.67 -6.27 -30 0 L -30 0 C -30 0 -35.27 48.54 -15 25.98 L -15 25.98 C -15 25.98 24.4 54.81 15 25.98 z"
      fill="#ec4899"
      transform="rotate(20) scale(0.75)"
    ></path>
  </g>
  <g>
    <circle cx="0" cy="0" r="14" fill="none"></circle>
    <path
      d="M -20 20 L -10 10 A 10 10 0 0 0 10 -10 A 10 10 0 0 0 -10 10"
      fill="none"
      stroke="white"
      stroke-width="5"
    ></path>
  </g>
  <g fill="#0ea5e9">
    <path
      d="M 7 0 L 7 0 C 7 0 0 0 0 -7 L 0 -7 C 0 -7 0 0 -7 0 L -7 0 C -7 0 0 0 0 7 L 0 7 C 0 7 0 0 7 0 z"
      transform="translate(38, 38)"
    ></path>
    <path
      d="M 5 0 L 5 0 C 5 0 0 0 0 -5 L 0 -5 C 0 -5 0 0 -5 0 L -5 0 C -5 0 0 0 0 5 L 0 5 C 0 5 0 0 5 0 z"
      transform="translate(-40, -35)"
    ></path>
    <path
      d="M 3 0 L 3 0 C 3 0 0 0 0 -3 L 0 -3 C 0 -3 0 0 -3 0 L -3 0 C -3 0 0 0 0 3 L 0 3 C 0 3 0 0 3 0 z"
      transform="translate(-30, 40)"
    ></path>
  </g>
  <g>
    <text x="75" y="-9" fill="#581c87">co</text>
    <text x="106" y="-9" fill="#a21caf">S</text>
    <text x="129" y="-9" fill="#a21caf">M</text>
    <text x="158" y="-9" fill="#581c87">ic</text>
    <text x="106" y="21" fill="#ec4899">Q</text>
    <text x="129" y="21" fill="#ec4899">C</text>
  </g>
</svg>
